<?xml version="1.0" standalone="no"?>
<!DOCTYPE svg PUBLIC "-//W3C//DTD SVG 20010904//EN"
 "http://www.w3.org/TR/2001/REC-SVG-20010904/DTD/svg10.dtd">
<svg version="1.0" xmlns="http://www.w3.org/2000/svg"
 width="118.000000pt" height="170.000000pt" viewBox="0 0 118.000000 170.000000"
 preserveAspectRatio="xMidYMid meet">
<metadata>
Created by potrace 1.16, written by Peter Selinger 2001-2019
</metadata>
<g transform="translate(0.000000,170.000000) scale(0.100000,-0.100000)"
fill="#000000" stroke="none">
<path d="M0 850 l0 -850 590 0 590 0 0 850 0 850 -590 0 -590 0 0 -850z m715
765 c75 -20 146 -59 206 -113 57 -51 66 -74 44 -109 l-17 -26 -40 46 c-21 26
-52 55 -68 67 l-28 20 -26 -45 -27 -45 -29 21 -29 22 24 35 c13 19 22 39 20
43 -11 17 -111 31 -177 26 -68 -6 -164 -43 -212 -81 -18 -15 -18 -16 7 -59 15
-24 47 -70 72 -101 l47 -57 -24 -19 c-13 -11 -26 -19 -29 -20 -4 0 -37 41 -74
90 -51 69 -70 88 -80 80 -20 -16 -55 -104 -66 -167 -12 -63 -3 -153 15 -153
19 0 153 67 204 102 26 17 73 56 104 86 47 45 57 59 52 78 -8 31 43 84 81 84
51 0 89 -63 69 -115 -8 -19 -55 -45 -82 -45 -10 0 -27 -10 -38 -22 -41 -46
-164 -136 -242 -176 -95 -50 -193 -86 -203 -75 -29 33 -45 168 -29 253 48 267
316 442 575 375z m331 -310 c38 -125 26 -241 -36 -364 -61 -122 -200 -220
-343 -242 -166 -26 -341 50 -448 195 -16 21 -29 42 -29 47 0 4 14 10 31 14 26
6 35 3 57 -24 l27 -31 58 14 c58 14 58 14 68 -11 14 -36 12 -42 -18 -49 -44
-11 -46 -15 -16 -34 35 -21 114 -46 169 -54 54 -8 146 10 209 40 51 24 135 89
135 104 0 5 -29 18 -65 30 -36 12 -67 25 -70 30 -3 5 6 17 20 29 26 19 26 19
82 0 31 -10 62 -19 68 -19 30 0 64 154 51 225 l-7 36 -77 -82 c-82 -87 -171
-160 -244 -199 -27 -14 -49 -34 -55 -51 -25 -65 -94 -74 -136 -17 -23 31 -18
67 16 98 18 18 30 20 68 15 43 -6 50 -3 124 46 91 61 217 186 278 275 48 72
55 70 83 -21z m-797 -780 c49 -25 57 -90 16 -130 -20 -21 -34 -25 -80 -25
l-55 0 0 85 0 85 45 0 c26 0 59 -7 74 -15z m200 -48 c45 -101 46 -107 18 -107
-14 0 -27 7 -31 15 -3 9 -18 15 -40 15 -21 0 -36 -6 -40 -15 -3 -8 -16 -15
-30 -15 l-24 0 36 85 c31 72 40 85 60 85 18 0 28 -12 51 -63z m142 16 l34 -48
3 48 c3 39 6 47 23 47 17 0 19 -8 20 -65 1 -36 2 -73 3 -82 1 -11 -7 -19 -20
-21 -16 -2 -31 9 -55 44 l-34 47 -3 -47 c-3 -38 -7 -46 -23 -46 -17 0 -19 7
-19 85 0 76 2 85 18 85 11 0 33 -21 53 -47z m347 30 c-2 -13 -15 -19 -46 -21
-28 -2 -42 -8 -42 -18 0 -10 12 -14 40 -14 29 0 40 -4 40 -15 0 -11 -11 -15
-40 -15 -28 0 -40 -4 -40 -14 0 -10 14 -16 42 -18 31 -2 44 -8 46 -20 3 -16
-5 -18 -67 -18 l-71 0 0 85 0 85 71 0 c62 0 70 -2 67 -17z"/>
</g>
</svg>
